<?xml version="1.0" standalone="no"?>
<!DOCTYPE svg PUBLIC "-//W3C//DTD SVG 20010904//EN"
 "http://www.w3.org/TR/2001/REC-SVG-20010904/DTD/svg10.dtd">
<svg version="1.0" xmlns="http://www.w3.org/2000/svg"
 width="1471.000000pt" height="397.000000pt" viewBox="0 0 1471.000000 397.000000"
 preserveAspectRatio="xMidYMid meet">

<g transform="translate(0.000000,397.000000) scale(0.100000,-0.100000)"
fill="#00547C" stroke="none">
<path d="M12300 3654 c-14 -2 -65 -9 -115 -15 -169 -21 -583 -136 -865 -241
-174 -65 -521 -207 -537 -220 -9 -7 -13 -41 -13 -104 0 -52 2 -94 4 -94 2 0
55 22 118 49 129 55 427 167 628 236 400 137 771 206 1025 190 369 -22 599
-99 823 -278 l63 -50 -52 -28 c-106 -59 -192 -142 -338 -329 -210 -269 -316
-417 -338 -470 -42 -103 -24 -227 42 -278 37 -29 69 -28 316 7 112 16 267 37
344 45 77 9 157 18 177 21 l36 5 -9 -38 c-32 -121 -103 -338 -180 -554 -48
-135 -122 -358 -164 -495 -60 -196 -270 -840 -292 -900 -4 -10 22 -13 110 -13
l115 0 135 407 c170 512 403 1269 477 1551 l11 42 60 0 c119 0 223 -86 255
-209 l11 -46 78 75 c196 190 324 429 325 606 0 134 -83 289 -215 397 -123 101
-348 199 -538 234 -82 14 -98 21 -142 58 -277 230 -561 364 -900 421 -86 15
-403 27 -455 18z m1585 -689 c168 -49 331 -139 409 -225 21 -23 51 -70 67
-104 25 -52 29 -73 29 -142 0 -48 -8 -112 -20 -159 -22 -88 -92 -234 -150
-314 -40 -56 -43 -56 -53 4 -28 162 -156 291 -337 341 -87 24 -300 24 -425 0
-96 -18 -318 -76 -313 -82 2 -2 58 8 123 21 244 49 456 50 581 4 54 -20 154
-103 154 -127 0 -5 -57 -7 -129 -4 -155 6 -274 -6 -606 -58 -137 -22 -279 -41
-313 -42 -57 -3 -66 0 -83 21 -24 29 -24 84 0 136 28 62 208 288 410 515 136
153 225 221 312 240 79 16 245 5 344 -25z"/>
<path d="M11870 3240 c0 -5 7 -28 16 -50 11 -26 13 -45 7 -51 -5 -5 -50 -16
-99 -25 -120 -21 -128 -29 -49 -54 22 -7 66 -26 97 -41 65 -33 81 -57 116
-175 44 -146 122 -216 282 -253 150 -36 273 -24 359 32 27 18 50 50 86 118 32
60 70 114 105 150 58 58 142 109 182 109 37 0 10 15 -157 85 -88 37 -184 81
-214 98 l-53 30 -25 -32 c-43 -55 -115 -84 -218 -89 -137 -6 -260 33 -387 124
-27 19 -48 30 -48 24z m398 -266 c39 -27 21 -104 -24 -104 -54 0 -76 73 -32
104 12 9 25 16 28 16 3 0 16 -7 28 -16z m332 -44 c0 -104 -17 -160 -63 -208
-57 -58 -113 -84 -186 -84 -72 0 -134 26 -186 77 -62 63 -109 190 -86 234 20
36 37 24 54 -36 51 -186 204 -248 328 -136 50 45 78 99 86 164 5 43 9 49 29
49 23 0 24 -4 24 -60z"/>
<path d="M1048 2013 c-32 -5 -38 -34 -12 -55 9 -7 27 -23 40 -35 l24 -22 -2
-233 -3 -233 -392 -3 -393 -2 0 237 c0 131 4 244 9 251 4 8 19 19 32 26 15 7
25 22 27 39 l3 27 -160 0 -161 0 0 -29 c0 -18 11 -40 30 -59 l30 -32 0 -619
c0 -364 -4 -630 -9 -644 -6 -14 -19 -28 -30 -32 -16 -5 -21 -15 -21 -41 l0
-34 160 0 160 0 0 24 c0 17 -10 30 -35 45 l-35 20 0 341 0 340 390 0 390 0 -2
-342 -3 -343 -32 -15 c-25 -12 -33 -21 -33 -43 l0 -27 163 2 162 3 3 26 c2 21
-3 29 -27 39 -18 7 -34 23 -40 42 -12 35 -14 1225 -2 1267 4 14 20 32 36 41
36 20 44 49 19 67 -17 13 -215 17 -286 6z"/>
<path d="M1881 1530 c-197 -73 -343 -286 -345 -505 -1 -139 42 -260 131 -369
95 -117 217 -176 363 -176 259 0 468 204 495 487 22 223 -98 444 -294 541 -71
35 -81 37 -185 40 -91 2 -121 -1 -165 -18z m280 -127 c89 -40 154 -130 184
-255 49 -208 -35 -437 -189 -515 -95 -48 -231 -32 -309 37 -86 76 -127 192
-127 356 0 201 76 340 215 392 46 17 172 9 226 -15z"/>
<path d="M3194 1540 c-47 -10 -129 -49 -191 -91 -23 -16 -44 -29 -47 -29 -3 0
-6 23 -6 50 l0 50 -120 0 c-114 0 -120 -1 -120 -20 0 -12 13 -28 32 -40 18
-11 36 -28 39 -37 12 -31 -2 -1276 -14 -1292 -6 -7 -22 -17 -35 -22 -17 -6
-22 -15 -20 -32 3 -22 5 -22 158 -22 138 0 155 2 158 17 2 11 -11 26 -37 43
l-41 25 0 190 0 190 113 0 c156 0 228 13 323 60 195 95 316 311 300 532 -14
194 -118 350 -273 408 -65 24 -159 33 -219 20z m120 -146 c55 -19 133 -91 160
-147 67 -143 29 -358 -84 -481 -74 -80 -207 -126 -365 -126 -81 0 -75 -24 -75
320 l0 307 58 45 c119 93 205 116 306 82z"/>
<path d="M5380 1544 c-47 -10 -155 -45 -190 -62 l-35 -17 -3 -93 c-3 -84 -1
-92 16 -92 10 0 33 18 50 39 76 95 246 137 362 89 63 -27 120 -92 120 -139 0
-32 4 -31 -130 -49 -267 -36 -413 -113 -479 -254 -57 -121 -58 -208 -4 -308
90 -165 338 -199 547 -73 32 19 63 35 68 35 5 0 8 -21 6 -48 l-3 -47 118 -3
117 -3 0 26 c0 18 -7 28 -24 35 -13 5 -28 15 -33 22 -4 7 -10 173 -13 368 l-5
355 -28 57 c-54 110 -152 158 -332 163 -55 2 -111 1 -125 -1z m325 -588 l0
-158 -50 -46 c-101 -91 -239 -126 -328 -83 -49 24 -93 78 -103 128 -9 43 19
131 56 175 19 23 59 51 103 72 74 36 238 77 292 73 l30 -2 0 -159z"/>
<path d="M6150 1504 c0 -9 15 -34 34 -54 46 -51 48 -76 44 -470 -3 -355 -6
-372 -61 -398 -20 -10 -27 -20 -25 -35 l3 -22 322 3 c251 2 330 6 363 17 101
36 191 135 212 235 9 46 8 64 -5 111 -21 70 -87 147 -149 174 -24 10 -45 20
-47 22 -3 2 14 21 37 43 55 54 74 92 79 165 7 100 -44 173 -146 207 -24 8
-143 13 -348 15 -289 4 -313 3 -313 -13z m555 -114 c57 -13 85 -49 85 -110 0
-40 -5 -55 -30 -83 -46 -52 -69 -58 -230 -55 l-145 3 -3 114 c-1 63 0 121 2
128 6 16 256 18 321 3z m65 -390 c87 -32 104 -56 108 -148 2 -63 -1 -83 -17
-109 -25 -40 -86 -80 -143 -93 -47 -10 -297 -14 -322 -4 -14 5 -16 31 -16 183
0 98 3 181 7 184 3 4 79 7 167 7 136 0 170 -3 216 -20z"/>
<path d="M7215 1510 c-11 -19 5 -48 34 -60 16 -6 32 -21 35 -33 3 -12 6 -162
6 -333 0 -355 7 -402 75 -481 56 -65 130 -96 241 -101 115 -5 203 19 287 78
32 22 60 40 62 40 3 0 5 -22 5 -50 l0 -50 120 0 120 0 0 25 c0 18 -7 26 -25
31 -50 13 -50 7 -55 488 l-5 451 -111 3 c-99 2 -112 1 -118 -15 -5 -12 0 -23
16 -35 62 -46 58 -19 58 -367 l0 -319 -48 -44 c-143 -128 -300 -148 -393 -51
-66 68 -64 54 -69 458 l-5 370 -112 3 c-69 2 -114 -1 -118 -8z"/>
<path d="M8410 1505 c-15 -18 -6 -45 15 -45 8 0 24 -9 35 -20 19 -19 20 -33
20 -423 0 -372 -1 -405 -17 -419 -10 -8 -26 -18 -35 -21 -11 -4 -18 -17 -18
-32 l0 -25 155 0 155 0 0 25 c0 17 -7 28 -23 34 -46 18 -48 26 -45 247 l3 209
250 0 250 0 3 -185 c4 -229 1 -246 -42 -267 -26 -12 -32 -20 -28 -39 l4 -24
154 0 154 0 0 25 c0 18 -7 26 -25 31 -55 14 -55 16 -55 436 0 214 4 398 9 411
6 14 23 29 41 36 25 8 31 15 28 33 -3 22 -6 23 -136 26 -134 3 -172 -5 -172
-33 0 -8 13 -21 29 -29 16 -9 31 -23 35 -31 12 -31 7 -250 -6 -263 -9 -9 -79
-12 -255 -12 l-243 0 0 140 0 141 36 21 c25 15 34 26 32 42 -3 20 -9 21 -149
24 -121 2 -148 0 -159 -13z"/>
<path d="M4301 1494 c-231 -62 -421 -302 -421 -533 0 -228 123 -398 318 -440
144 -30 293 3 385 88 33 30 40 24 61 -48 33 -114 16 -202 -54 -272 -71 -71
-137 -93 -280 -94 -104 0 -120 3 -171 26 -32 15 -66 36 -78 48 -23 23 -28 70
-11 101 7 14 6 23 -6 34 -19 20 -23 18 -118 -70 l-77 -71 59 -54 c111 -103
234 -149 402 -149 224 0 398 87 471 236 41 82 48 168 24 279 -14 64 -18 149
-21 425 -3 190 -2 364 1 388 5 36 12 47 41 64 20 12 34 28 34 39 0 18 -11 19
-252 18 -188 0 -267 -4 -307 -15z m319 -408 l0 -304 -51 -45 c-77 -68 -131
-91 -221 -95 -98 -5 -171 24 -217 88 -118 163 -69 460 97 587 67 51 148 72
280 72 l112 1 0 -304z"/>
<path d="M10045 1503 c-205 -43 -389 -220 -439 -421 -53 -211 29 -434 191
-519 151 -80 346 -69 472 28 29 22 57 37 61 32 15 -15 40 -117 40 -161 0 -73
-20 -123 -70 -173 -71 -71 -138 -94 -280 -94 -103 0 -121 3 -171 26 -31 15
-66 37 -77 50 -24 25 -28 68 -11 101 9 16 8 24 -4 36 -14 13 -24 7 -101 -63
-47 -42 -86 -81 -86 -86 0 -16 122 -110 181 -139 93 -48 160 -62 292 -61 129
0 193 13 286 61 68 34 155 123 183 187 29 65 34 169 14 267 -13 64 -16 147
-16 463 l0 384 30 17 c22 12 30 24 30 45 l0 27 -252 -1 c-139 -1 -262 -3 -273
-6z m285 -414 l0 -301 -52 -49 c-73 -67 -142 -101 -215 -102 -182 -4 -283 107
-283 312 0 110 25 196 80 277 75 112 190 162 373 163 l97 1 0 -301z"/>
</g>
</svg>
